<?xml version="1.0" encoding="UTF-8" standalone="no"?>
<svg
   xmlns:dc="http://purl.org/dc/elements/1.1/"
   xmlns:cc="http://creativecommons.org/ns#"
   xmlns:rdf="http://www.w3.org/1999/02/22-rdf-syntax-ns#"
   xmlns:svg="http://www.w3.org/2000/svg"
   xmlns="http://www.w3.org/2000/svg"
   xmlns:xlink="http://www.w3.org/1999/xlink"
   xmlns:sodipodi="http://sodipodi.sourceforge.net/DTD/sodipodi-0.dtd"
   xmlns:inkscape="http://www.inkscape.org/namespaces/inkscape"
   id="813c2686-e70f-4fb0-bf6b-a2eb7b1db384"
   data-name="Layer 1"
   width="1121.04"
   height="851.8"
   viewBox="0 0 1121.04 851.8"
   version="1.1"
   sodipodi:docname="about-extra-2.svg"
   inkscape:version="0.92.4 (5da689c313, 2019-01-14)">
  <metadata
     id="metadata11396">
    <rdf:RDF>
      <cc:Work
         rdf:about="">
        <dc:format>image/svg+xml</dc:format>
        <dc:type
           rdf:resource="http://purl.org/dc/dcmitype/StillImage" />
      </cc:Work>
    </rdf:RDF>
  </metadata>
  <sodipodi:namedview
     pagecolor="#ffffff"
     bordercolor="#666666"
     borderopacity="1"
     objecttolerance="10"
     gridtolerance="10"
     guidetolerance="10"
     inkscape:pageopacity="0"
     inkscape:pageshadow="2"
     inkscape:window-width="1771"
     inkscape:window-height="921"
     id="namedview11394"
     showgrid="false"
     inkscape:zoom="0.783645"
     inkscape:cx="430.21729"
     inkscape:cy="626.73949"
     inkscape:window-x="0"
     inkscape:window-y="50"
     inkscape:window-maximized="0"
     inkscape:current-layer="813c2686-e70f-4fb0-bf6b-a2eb7b1db384" />
  <defs
     id="defs10281">
    <linearGradient
       id="a631a87a-781e-44c6-95a9-52fd0c67a2fa"
       x1="590.32"
       y1="444.05"
       x2="590.32"
       y2="24.1"
       gradientTransform="matrix(-1, 0, 0, 1, 852.2, 0)"
       gradientUnits="userSpaceOnUse">
      <stop
         offset="0"
         stop-color="gray"
         stop-opacity="0.25"
         id="stop10273" />
      <stop
         offset="0.54"
         stop-color="gray"
         stop-opacity="0.12"
         id="stop10275" />
      <stop
         offset="1"
         stop-color="gray"
         stop-opacity="0.1"
         id="stop10277" />
    </linearGradient>
    <linearGradient
       id="a15ea5fa-8dd7-4ce2-ac3d-c62a3c4696f0"
       x1="493.3"
       y1="875.74"
       x2="493.3"
       y2="319.35"
       gradientTransform="matrix(1, 0, 0, 1, 0, 0)"
       xlink:href="#a631a87a-781e-44c6-95a9-52fd0c67a2fa" />
  </defs>
  <title
     id="title10283">interaction design</title>
  <path
     d="M853.71,783.67l-8-25.46s-6.7-18.07-5.62-27.76-2.25-20.27-2.25-20.27l6.58-34.25s.36-3.73.34-8.65c0-8.2-1.16-19.7-6.84-22.69-9.08-4.79-27.69-45.28-31.59-45.28s-16.44-2.61-16.44-7a2.61,2.61,0,0,0,0-.48s0-.1,0-.15-.06-.23-.1-.35l-.06-.17-.18-.4-.06-.11a10.68,10.68,0,0,0-1.81-2.37c16.94-3.23,33.8-6.78,50.54-10.91l-.62,0,.62-.15a56.7,56.7,0,0,1-6.65-.46l-.49.11c-24.62-3.36-46.75-22.61-52.77-47-6.68-27,5-55.18,4.48-83a95.32,95.32,0,0,0-15.11-49.58c-1.28-2-2.64-3.92-4.06-5.8a38,38,0,0,0,14.63-55.82c-.43-.62-.88-1.22-1.34-1.81A38.11,38.11,0,0,1,770.69,381a37.77,37.77,0,1,0-66.53-35.77c-.81-.36-1.62-.72-2.43-1.05a37.76,37.76,0,0,1,33.14-24.73c-.75-.05-1.49-.07-2.25-.07a37.73,37.73,0,0,0-34.79,23.26c-11.32-4.15-23.13-5.87-34.75-2.92a38.2,38.2,0,0,0-6.3,2.19l.52-.41a28.11,28.11,0,0,0-7.87,5c-3.48,3.21-5.93,7.37-8.88,11.09A46.84,46.84,0,0,1,630,367.17c.33-.16.66-.35,1-.52-13.4,9.48-31.61,12.21-46.93,6.11-4.3-1.72-8.45-4.07-13-4.7a19.64,19.64,0,0,0-10.29,1.5c.14-.11.27-.23.42-.34a26.91,26.91,0,0,0-10.8,8.1c-5,6.17-7.51,14-9.3,21.71a70.71,70.71,0,0,0-2,16.72c.07,7.22,1.69,14.19,6,19.84,6.68,8.66,15.8,11,25.32,12.56-.28,1-.55,1.92-.79,2.9A86,86,0,0,0,629,554.71l1.85,3.14.6.14c4.43,7.49,9.28,15.9,13.78,24,.24.43.47.86.71,1.28l-8.51,4.38h0c-2.23,1.15-7.77,4.16-10.84,7.12a7.21,7.21,0,0,0-2,2.83c-1.3,4.36-8.22,15.68-13,18.72s-8.66,17.85-8.22,25.67-2.6,7-10.39,7.42,0,11.75,0,11.75l.2.76c-.36.62-.77,1.29-1.22,2-2,3.07-4.63,6.47-6.55,6.29-3.47-.33-5.63,8.16-5.41,9.46s-6.06,11.75-8.44,12.84-12.55,3.17-9.74,12.91l-12.34,12.56-10,9.58s-14.28-8.06-37.44,17a20.69,20.69,0,0,1,7.68.72l-.66.32c-6.1,2.89-16.66,7.82-24.47,11L443,757.89v-31s-3.68-8.7-8,0l-1.09,31.32-90.4,2.93,16.94-18h0l.22-.24A14.83,14.83,0,0,0,364,728.23L293.32,506.06h0l-.49-1.56a12.16,12.16,0,0,0-9.95-8.38L184.7,482.87l-.68-.09L175,485.23a8.84,8.84,0,0,0-6.16,11c2.32,8,6.13,21.06,11,37.47H166.28l10.39,89.68L183,657.88q2.43,13.2,5.67,26.24c5.21,21,15.52,65.79,15.75,91.77l-76,82.86v16.83H613.87a.8.8,0,0,0,.08.16H850.46s-2.59-4.57,3-11.1,2.82-32.43,2.82-32.43-3.14-4.14.7-13.28S853.71,783.67,853.71,783.67ZM250.52,764.12l-12.9.42-12-78.06C234.51,715,243.13,742.14,250.52,764.12ZM582.7,811.56l-8.37-17.08a9.31,9.31,0,0,0,5.43-1.45c5.41-3.92,8.65-13.06,8.65-13.06l14.52-17.25,1.2-1.44c2.94,8.21,6.4,14.69,9.17,17.82,6.92,7.84,7.79,30.47,9.92,38.74s.47,4.79,0,9.58a12.51,12.51,0,0,0,.29,3.49C613.94,820.64,600.33,811.3,582.7,811.56Z"
     transform="translate(-39.48 -24.1)"
     fill="url(#a15ea5fa-8dd7-4ce2-ac3d-c62a3c4696f0)"
     id="path11255" />
  <polygon
     points="93.83 834.98 179.18 742.47 518.18 731.56 577.36 851.64 93.83 851.64 93.83 834.98"
     fill="#514e7f"
     id="polygon11257" />
  <polygon
     points="93.83 834.98 179.18 742.47 518.18 731.56 577.36 851.64 93.83 851.64 93.83 834.98"
     opacity="0.2"
     id="polygon11259" />
  <path
     d="M574.9,851.36v3.2a6.24,6.24,0,0,1-6.24,6.24H386.44c-3.45,0,0-6.89,0-6.89l-2.06-45.13a7.45,7.45,0,0,1,5.62-7.56c10.14-2.56,17.12,1.55,17.12,1.55L520,799.9a36.19,36.19,0,0,1,7,.33,30.66,30.66,0,0,1,20.69,12.26l25.94,35.17A6.24,6.24,0,0,1,574.9,851.36Z"
     transform="translate(-39.48 -24.1)"
     fill="#514e7f"
     id="path11261" />
  <path
     d="M574.9,854.56h0a6.24,6.24,0,0,1-6.24,6.24H386.44c-3.45,0,0-6.89,0-6.89s10.06-4.88,25-4l133-2.88s15.71.36,24.9,1.36A6.23,6.23,0,0,1,574.9,854.56Z"
     transform="translate(-39.48 -24.1)"
     opacity="0.1"
     id="path11263" />
  <polygon
     points="483.7 783.55 369.36 783.55 372.52 818.32 504.96 816.02 483.7 783.55"
     fill="#007bff"
     id="polygon11265" />
  <path
     d="M329.27,832.07v12.07L209.48,849s-27.39-1.87-30.75-18.7a15.7,15.7,0,0,1,.1-5.3c1.21-7.09,7.29-19.47,34.09-25.19l33-3.39H319.5S329,805.93,329.27,832.07Z"
     transform="translate(-39.48 -24.1)"
     fill="#514e7f"
     id="path11267" />
  <path
     d="M329.27,832.45v11.69L209.48,849s-27.39-1.87-30.75-18.7a15.7,15.7,0,0,1,.1-5.3s16.56,15.66,39,13.36l105.44-4.59A59.28,59.28,0,0,0,329.27,832.45Z"
     transform="translate(-39.48 -24.1)"
     opacity="0.1"
     id="path11269" />
  <ellipse
     cx="237.35"
     cy="813.97"
     rx="36.83"
     ry="6.32"
     transform="translate(-81.1 -10.79) rotate(-2.95)"
     opacity="0.1"
     id="ellipse11271" />
  <path
     d="M249,811l-19.38,9.58L209,815.7l-.1-33.61c1.31-24.53-10-73.63-15.59-95.88q-3.23-12.9-5.65-26l-6.34-34.15L171,537.32h24.56L210,558Z"
     transform="translate(-39.48 -24.1)"
     fill="#514e7f"
     id="path11273" />
  <path
     d="M249,811l-19.38,9.58-12.36-71.78c.24-12.23-15.09-70.29-16.09-72.68-12.22-29.17-22.69-138.76-22.69-138.76h17.09L210,558Z"
     transform="translate(-39.48 -24.1)"
     fill="#514e7f"
     id="path11275" />
  <path
     d="M249,811l-19.38,9.58-12.36-71.78c.24-12.23-15.09-70.29-16.09-72.68-12.22-29.17-22.69-138.76-22.69-138.76h17.09L210,558Z"
     transform="translate(-39.48 -24.1)"
     opacity="0.15"
     id="path11277" />
  <path
     d="M364.53,744.42l-66,69.55-7.74.55-9.43.68a10.63,10.63,0,0,1-10.48-6.29c-20-45-83.94-262.59-97.4-308.68a8.74,8.74,0,0,1,6.13-10.9l9-2.42.67.08,96.15,12.9a14.65,14.65,0,0,1,12,10.06l70.38,219.93A14.64,14.64,0,0,1,364.53,744.42Z"
     transform="translate(-39.48 -24.1)"
     fill="#514e7f"
     id="path11279" />
  <path
     d="M364.53,744.42l-66,69.55-7.74.55-9.43.68a10.63,10.63,0,0,1-10.48-6.29c-20-45-83.94-262.59-97.4-308.68a8.74,8.74,0,0,1,6.13-10.9l9-2.42.67.08,96.15,12.9a14.65,14.65,0,0,1,12,10.06l70.38,219.93A14.64,14.64,0,0,1,364.53,744.42Z"
     transform="translate(-39.48 -24.1)"
     opacity="0.1"
     id="path11281" />
  <path
     d="M364.3,744.66,298.53,814l-7.74.55-98.7-316A30.15,30.15,0,0,1,189.32,487l97.76,13.12a12.08,12.08,0,0,1,9.9,8.3l70.77,221.15A15.2,15.2,0,0,1,364.3,744.66Z"
     transform="translate(-39.48 -24.1)"
     fill="#514e7f"
     id="path11283" />
  <path
     d="M359.48,733a14.66,14.66,0,0,1-2.66,3.3l-64.75,60.2L203.73,503.71l84.83,8.4a14.87,14.87,0,0,1,12.79,10.53l59.59,198.43A14.93,14.93,0,0,1,359.48,733Z"
     transform="translate(-39.48 -24.1)"
     fill="#007bff"
     id="path11285" />
  <path
     d="M359.48,733,288.56,512.11a14.87,14.87,0,0,1,12.79,10.53l59.59,198.43A14.93,14.93,0,0,1,359.48,733Z"
     transform="translate(-39.48 -24.1)"
     opacity="0.1"
     id="path11287" />
  <circle
     cx="700.27"
     cy="344.15"
     r="37.55"
     fill="#945b79"
     id="circle11289" />
  <path
     d="M701.81,362.68a37.55,37.55,0,0,1,35.31-37.49c-.74,0-1.48-.07-2.23-.07a37.56,37.56,0,1,0,0,75.11c.75,0,1.49,0,2.23-.07A37.55,37.55,0,0,1,701.81,362.68Z"
     transform="translate(-39.48 -24.1)"
     fill="#945b79"
     id="path11291" />
  <path
     d="M706.67,368.25A37.55,37.55,0,0,1,742,330.77c-.74,0-1.49-.07-2.24-.07a37.56,37.56,0,0,0,0,75.11c.75,0,1.5,0,2.24-.08A37.54,37.54,0,0,1,706.67,368.25Z"
     transform="translate(-39.48 -24.1)"
     opacity="0.1"
     id="path11293" />
  <path
     d="M546.48,789.28a101.83,101.83,0,0,1-10.82,4.93c-9.66,3.8-24.38,8.16-38.09,6.49-23.05-2.8-36.84,4.74-36.84,4.74l-5.17-38.35s17-5,23.91-6.25c5.18-1,23.87-9.61,32.84-13.84,3-1.4,4.87-2.32,4.87-2.32h17.24Z"
     transform="translate(-39.48 -24.1)"
     fill="#ffc1c7"
     id="path11295" />
  <path
     d="M546.48,789.28a101.83,101.83,0,0,1-10.82,4.93c-1.17-34.15-14.27-44.29-23.35-47.21,3-1.4,4.87-2.32,4.87-2.32h17.24Z"
     transform="translate(-39.48 -24.1)"
     opacity="0.1"
     id="path11297" />
  <path
     d="M610.26,674.66v84L605.75,764,591.3,781.1s-3.23,9-8.62,12.92S565,792.73,565,792.73l-3.45,5.6s-7.75,1.51-11.41,0-12.72,4.31-12.72,4.31c1.3-61.62-32.1-56.66-32.1-56.66,23.05-24.78,37.27-16.81,37.27-16.81l9.92-9.48,12.28-12.44c-2.8-9.63,7.32-11.69,9.69-12.77s8.62-11.42,8.41-12.71,1.93-9.7,5.38-9.37c1.92.18,4.55-3.19,6.53-6.22,1.58-2.44,2.74-4.66,2.74-4.66Z"
     transform="translate(-39.48 -24.1)"
     fill="#ff6584"
     id="path11299" />
  <path
     d="M640.09,590.69l25.4-13-1.44,15.23,5,15.3s-4.59,11.85-5.16,13.14-11.49,28.3-11.49,28.3l-8.76-11.06Z"
     transform="translate(-39.48 -24.1)"
     fill="#ff6584"
     id="path11301" />
  <polyline
     points="604.17 614.5 600.61 566.59 626.01 553.6"
     opacity="0.1"
     id="polyline11303" />
  <path
     d="M749.23,576.41s-8.44,12.14-20,27.61c-26.9,36-70.66,90-64,50.82.22-1.28.39-2.56.54-3.85-1.64,1.1-5.4.14-9.5-1.81l-.28-.13a48.9,48.9,0,0,1-5.84-3.38c-.21-.13-.41-.27-.61-.41-4.55-3.17-8.19-6.88-8-9.44,3.23-56.24,16.32-29.42,20-23.18a4.06,4.06,0,0,0,.84,1.17q-.24-.66-.54-1.38c-2.58-6.33-7.51-15.79-13.14-25.9l0-.1-.75-1.34c-4.68-8.35-9.75-17.08-14.31-24.74l-1.23-2.06c-7.2-12.08-12.8-21.09-12.8-21.09s32.71-29.92,60.28-48.1c23-15.19,42.48-22.2,36.25,3.28-4,16.38-2.83,30.39.86,42,.13.43.27.86.42,1.28a67.8,67.8,0,0,0,2.56,6.51,73.94,73.94,0,0,0,4.48,8.5A82.39,82.39,0,0,0,749.23,576.41Z"
     transform="translate(-39.48 -24.1)"
     fill="#ffc1c7"
     id="path11305" />
  <path
     d="M698.38,531c-15.51,16.85-18.81,33-43.52,33a85,85,0,0,1-21.31-2.7c-7.79-13.1-14-23.15-14-23.15s110.22-100.79,96.53-44.82C711.9,510.24,694.37,519.1,698.38,531Z"
     transform="translate(-39.48 -24.1)"
     opacity="0.15"
     id="path11307" />
  <path
     d="M739.75,476.44a84.9,84.9,0,1,1-84.89-84.9A84.52,84.52,0,0,1,739.75,476.44Z"
     transform="translate(-39.48 -24.1)"
     fill="#ffc1c7"
     id="path11309" />
  <path
     d="M652.92,623.38s1.51,24.13,16.81,22.19,3.66,51.28,3.66,51.28l-17,15.51L638.05,718s-16.16-4.74-15.94-5.61,6.46-51.27,6.46-51.27l9.48-26.94Z"
     transform="translate(-39.48 -24.1)"
     opacity="0.1"
     id="path11311" />
  <path
     d="M652.92,625.1s1.51,24.13,16.81,22.2,3.66,51.28,3.66,51.28l-17,15.51-18.32,5.6s-16.16-4.74-15.94-5.6,6.46-51.28,6.46-51.28l9.48-26.93Z"
     transform="translate(-39.48 -24.1)"
     fill="#514e7f"
     id="path11313" />
  <path
     d="M610.26,674.66v84L605.75,764c-4.65-12.34-8.19-29.07-6-44.11,2.85-19.94-2.83-45.46-4.89-53.73,1.58-2.44,2.74-4.66,2.74-4.66Z"
     transform="translate(-39.48 -24.1)"
     opacity="0.1"
     id="path11315" />
  <path
     d="M654.86,627.69a49.27,49.27,0,0,1-3.65,13.74c-.56,1.33-1.13,2.62-1.7,3.83-4.55-3.17-8.19-6.88-8-9.44,3.23-56.24,16.32-29.42,20-23.18C659.71,614,655.69,618,654.86,627.69Z"
     transform="translate(-39.48 -24.1)"
     opacity="0.1"
     id="path11317" />
  <path
     d="M661.79,612.43c-2.7-6.63-8-16.7-13.93-27.34l.75-.38,13.72,27.38A2.92,2.92,0,0,0,661.79,612.43Z"
     transform="translate(-39.48 -24.1)"
     opacity="0.1"
     id="path11319" />
  <path
     d="M749.23,576.41s-93.51,134.45-84,78.43c.22-1.28.39-2.56.54-3.85-1.68,1.12-5.57.1-9.78-1.94.64-3.74,1-6.3,1-6.3l10.35-29.28s6-23.27,5.17-28l.28-.19,51.46-34.55.05,0,0,0A82.39,82.39,0,0,0,749.23,576.41Z"
     transform="translate(-39.48 -24.1)"
     opacity="0.1"
     id="path11321" />
  <path
     d="M846.19,678.11,838.86,716l-22,159.87H626s3.44-28,3.44-32.32-3.87-10.77-3.44-15.51,2.08-1.3,0-9.48-3-30.6-9.87-38.35S598,744,601.43,719.91s-5.61-56.45-5.61-56.45-7.75-11.21,0-11.64,10.78.39,10.35-7.34,3.44-22.39,8.18-25.41,11.64-14.22,12.93-18.53a7.23,7.23,0,0,1,2-2.81c3.88-3.72,11.77-7.53,11.77-7.53l7.54-3.77,0,.1,13.68,27.28s-6.4,3.11-7.47,15.6a49.17,49.17,0,0,1-3.65,13.74c-.36.86-.72,1.71-1.09,2.52-1.1,2.44-2.22,4.6-3.17,6.32v0c-1.41,2.55-2.42,4.12-2.42,4.12s-.37,2.92-.93,7v0c-1.15,8.38-3.09,21.66-4.24,24.84-1,2.82-3,7.67-4.11,12-.7,2.71-1.1,5.22-.73,6.86,0,.13.06.26.1.38,1.29,4,7.75-13.2,7.75-13.2s4.74-14.65,6.9-14.65c1.65,0,5.36-20.68,7-30.22.48-2.85.77-4.7.77-4.7l10.35-29.29s1.43-5.53,2.8-11.75c1.44-6.54,2.81-13.83,2.37-16.26l.28-.19,51.46-34.55.05,0,.79-.53H725c-.36,0-1.4-.64-3.39-5.32-.51-1.19-1.08-2.63-1.71-4.41,0,0,16.46-6.61,22.33-1.77a5.23,5.23,0,0,1,1,1.06,4.19,4.19,0,0,1,.43.71c3.88,8,5.6,14,9.48,19.18a16.68,16.68,0,0,0,1.36,1.57c4.69,4.91,14,10.66,12.43,12.22-1.72,1.72,12.93,9,12.93,9s8.57,4.9,11.26,9a4.1,4.1,0,0,1,.8,2.18c0,4.31,12.5,6.89,16.38,6.89s22.41,40.08,31.45,44.82S846.19,678.11,846.19,678.11Z"
     transform="translate(-39.48 -24.1)"
     fill="#ff6584"
     id="path11323" />
  <g
     opacity="0.1"
     id="g11329">
    <path
       d="M652.85,613.81s-6.4,3.11-7.47,15.6a48.85,48.85,0,0,1-3.66,13.74,87.82,87.82,0,0,1-4.25,8.84v0c-1.41,2.55-2.42,4.12-2.42,4.12s-.37,2.92-.93,7v0C633,671.56,631,684.84,629.87,688c-1,2.82-3,7.67-4.11,12-.7,2.71-1.1,5.22-.73,6.86,0,.13.06.26.1.38,1.29,4,7.75-13.2,7.75-13.2s4.74-14.65,6.9-14.65c.61,0,1.51-2.86,2.48-6.94.49-3.27,1-6.54,1.33-9.28v0c.56-4.1.93-7,.93-7s.57-.88,1.45-2.4c.92-5.27,1.56-9.25,1.56-9.25l10.35-29.29s.75-2.92,1.69-6.89l-11-21.87-7.54,3.77,0,0Z"
       transform="translate(-39.48 -24.1)"
       id="path11325" />
    <path
       d="M839.72,647.08c-9-4.74-27.57-44.82-31.45-44.82s-16.38-2.58-16.38-6.89-12.06-11.21-12.06-11.21-14.65-7.32-12.93-9c1.55-1.56-7.74-7.31-12.43-12.22a18,18,0,0,1-1.36-1.57c-3.88-5.18-5.6-11.21-9.48-19.18a4.72,4.72,0,0,0-.43-.72,5.82,5.82,0,0,0-1-1.06c-2.64-2.17-7.4-2-11.86-1.22a7.15,7.15,0,0,1,2.38,1.22,5.82,5.82,0,0,1,1,1.06,4.72,4.72,0,0,1,.43.72c3.88,8,5.6,14,9.48,19.18A18,18,0,0,0,745,562.9c4.69,4.91,14,10.66,12.43,12.22-1.72,1.72,12.93,9,12.93,9s12.06,6.9,12.06,11.21,12.5,6.89,16.38,6.89,22.41,40.08,31.45,44.82,6.47,31,6.47,31L829.38,716l-22,159.87h9.48l22-159.87,7.33-37.92S848.77,651.82,839.72,647.08Z"
       transform="translate(-39.48 -24.1)"
       id="path11327" />
  </g>
  <path
     d="M463.4,767.87s-54.81-15.86-58.69,8.49,22.41,38.35,39.21,37.92,24.13-16.38,24.13-16.38Z"
     transform="translate(-39.48 -24.1)"
     fill="#ffc1c7"
     id="path11331" />
  <path
     d="M738.24,842.72s-12.28,8.83-38.35,8.83-56.45,5.6-56.45,5.6S604.66,765.8,526.88,844c0,0-14,18.1,58.6,20,0,0,25.64-.86,31.24,11.85h145L781.55,861Z"
     transform="translate(-39.48 -24.1)"
     fill="#ffc1c7"
     id="path11333" />
  <path
     d="M446.51,728.52s-3.66-8.61-8,0l-2.35,66.8,5.16,15.73,5.16-14Z"
     transform="translate(-39.48 -24.1)"
     fill="#514e7f"
     id="path11335" />
  <path
     d="M743.2,541.44C735.68,544,727.43,550,725,551.88c-.45,0-2-1-5.1-9.73C719.89,542.15,738.5,534.68,743.2,541.44Z"
     transform="translate(-39.48 -24.1)"
     opacity="0.1"
     id="path11337" />
  <path
     d="M662.33,613.81s-6.4,3.11-7.47,15.6a49.17,49.17,0,0,1-3.65,13.74L647,652v0l-3.35,11.14v0l.35,22.68L635.24,700l-.73,6.86-2.27,21.22-11.64-5.6s4.8-34.22,8.4-41.15,8.41-43.63,8.41-43.63-.22-13.47,1.51-15.84-3-1.94-3.45-6.89c-.26-2.94-3.54-11.1-6.17-17.25,3.88-3.72,11.77-7.53,11.77-7.53l7.54-3.77Z"
     transform="translate(-39.48 -24.1)"
     fill="#ff6584"
     id="path11339" />
  <path
     d="M662.33,613.81s-6.4,3.11-7.47,15.6a49.17,49.17,0,0,1-3.65,13.74L647,652v0l-3.35,11.14v0l.35,22.68L635.24,700l-.73,6.86-2.27,21.22-11.64-5.6s4.8-34.22,8.4-41.15,8.41-43.63,8.41-43.63-.22-13.47,1.51-15.84-3-1.94-3.45-6.89c-.26-2.94-3.54-11.1-6.17-17.25,3.88-3.72,11.77-7.53,11.77-7.53l7.54-3.77Z"
     transform="translate(-39.48 -24.1)"
     opacity="0.1"
     id="path11341" />
  <path
     d="M754.47,564.63c-9.61,7.86-35.45,30.16-38.42,45.32-3.66,18.69-14.65,16.88-14.65,16.88-13.73-29.78-23.18-37.08-28.59-38.11l51.46-34.56s0,0,.05,0l.79-.53H725c-.36,0-1.4-.63-3.39-5.31l20.62-6.19a5.23,5.23,0,0,1,1,1.06,4.63,4.63,0,0,1,.43.71c3.88,8,5.6,14,9.48,19.18A18.09,18.09,0,0,0,754.47,564.63Z"
     transform="translate(-39.48 -24.1)"
     opacity="0.1"
     id="path11343" />
  <path
     d="M754.47,562.9c-9.61,7.86-35.45,30.17-38.42,45.33-3.66,18.68-14.65,16.87-14.65,16.87C687.67,595.33,678.22,588,672.81,587l51.46-34.55.05,0,.79-.53H725c-.36,0-1.4-.64-3.39-5.32l20.62-6.18a5.23,5.23,0,0,1,1,1.06,4.19,4.19,0,0,1,.43.71c3.88,8,5.6,14,9.48,19.18A16.68,16.68,0,0,0,754.47,562.9Z"
     transform="translate(-39.48 -24.1)"
     fill="#ff6584"
     id="path11345" />
  <path
     d="M696.23,713.87c.64-.21,34.22-19.22,30.36-4.76S696.23,713.87,696.23,713.87Z"
     transform="translate(-39.48 -24.1)"
     opacity="0.1"
     id="path11347" />
  <path
     d="M551,732.08s17.66,27.47,23.91,26.61S551,732.08,551,732.08Z"
     transform="translate(-39.48 -24.1)"
     opacity="0.1"
     id="path11349" />
  <path
     d="M573,721.85s1.08,21.33,10.35,22.83S573,721.85,573,721.85Z"
     transform="translate(-39.48 -24.1)"
     opacity="0.1"
     id="path11351" />
  <path
     d="M671,790.36s21.94,36.5,17.67,49.13Z"
     transform="translate(-39.48 -24.1)"
     opacity="0.1"
     id="path11353" />
  <path
     d="M696.44,794.67s29.68,39,24.54,42.23S696.44,794.67,696.44,794.67Z"
     transform="translate(-39.48 -24.1)"
     opacity="0.1"
     id="path11355" />
  <path
     d="M629.71,732.08s-3.05,27.73,8.4,35.79Z"
     transform="translate(-39.48 -24.1)"
     opacity="0.1"
     id="path11357" />
  <path
     d="M762.81,608.73S712,648.16,720.14,689.1s16,43.95,16,43.95,3,16.37,8.62,23.27,4.74,11.42,4.74,11.42,5.17-2.37,6.89,9.48,10.77,20.25,10.77,20.25,3,9.48-4.74,14.65-6,10.78-6,10.78l-31.46,18.31L760,875.9h90.5s-2.59-4.52,3-11,2.81-32.1,2.81-32.1-3.13-4.1.7-13.15-3.29-34.9-3.29-34.9l-8-25.21s-6.68-17.88-5.6-27.47S837.92,712,837.92,712l-17.37-54.8S821.41,602.48,762.81,608.73Z"
     transform="translate(-39.48 -24.1)"
     opacity="0.1"
     id="path11359" />
  <path
     d="M764.53,608.73s-50.85,39.43-42.66,80.37,15.94,43.95,15.94,43.95,3,16.37,8.62,23.27,4.74,11.42,4.74,11.42,5.17-2.37,6.9,9.48,10.77,20.25,10.77,20.25,3,9.48-4.74,14.65-6,10.78-6,10.78l-31.46,18.31,35.12,34.69h90.49s-2.58-4.52,3-11,2.8-32.1,2.8-32.1-3.13-4.1.7-13.15-3.29-34.9-3.29-34.9l-8-25.21s-6.68-17.88-5.6-27.47S839.64,712,839.64,712l-17.37-54.8S823.13,602.48,764.53,608.73Z"
     transform="translate(-39.48 -24.1)"
     fill="#ff6584"
     id="path11361" />
  <path
     d="M781.55,636.52s36.2,12.28,45.89,18.32S813.22,630.92,781.55,636.52Z"
     transform="translate(-39.48 -24.1)"
     opacity="0.1"
     id="path11363" />
  <path
     d="M800.51,822.9S852,829.36,849,839.49,800.51,822.9,800.51,822.9Z"
     transform="translate(-39.48 -24.1)"
     opacity="0.1"
     id="path11365" />
  <path
     d="M790.42,833.88s37.67,12.07,31,22S790.42,833.88,790.42,833.88Z"
     transform="translate(-39.48 -24.1)"
     opacity="0.1"
     id="path11367" />
  <path
     d="M791.09,593.19c-20.55,4-41.2,7.42-61.86,10.83l-5.38.89c-11.36,1.87-22.79,3.75-34.31,3.69-5.61,0-11.39-.58-16.37-3.18a18,18,0,0,1-3-2c-3.49-2.8-6-6.87-5.94-11.29.06-8.06,7.71-13.65,14.29-18.31,9.63-6.83,19.14-15.5,22.86-26.39a30.07,30.07,0,0,0,1.45-6.3c1.1-9.25-2.27-18.38-5.86-27-3.92-9.35-9.3-19.4-17.16-25.08A23.58,23.58,0,0,0,669,484.68c-12.08-1.6-23.51,7-35.68,6.52-9.89-.43-18.29-6.78-24.24-14.25-4.33-5.44-7.07-12.72-13.59-15.95-7.06-3.51-15.09-4.34-22.94-5.51a84.9,84.9,0,1,1,144.34,78.87c.13.43.27.86.42,1.28a67.8,67.8,0,0,0,2.56,6.51s16.46-6.61,22.33-1.77a5.23,5.23,0,0,1,1,1.06,4.19,4.19,0,0,1,.43.71c3.88,8,5.6,14,9.48,19.18a16.68,16.68,0,0,0,1.36,1.57c4.69,4.91,14,10.66,12.43,12.22-1.72,1.72,12.93,9,12.93,9S788.4,589.07,791.09,593.19Z"
     transform="translate(-39.48 -24.1)"
     opacity="0.1"
     id="path11369" />
  <path
     d="M548.15,440.19c-7.66-9.88-6.83-23.84-4-36,1.78-7.67,4.31-15.38,9.27-21.49s12.77-10.39,20.58-9.33c4.57.62,8.7,2.95,13,4.65,19.3,7.64,43.24,1.29,56.22-14.92,2.94-3.67,5.37-7.79,8.85-11a31.42,31.42,0,0,1,13.58-6.85c21.72-5.48,44.12,5.31,62.7,17.82,15.86,10.68,30.94,23.15,41.35,39.18a93.88,93.88,0,0,1,15,49.07c.53,27.6-11.11,55.44-4.45,82.22,6.57,26.45,32.4,46.81,59.65,47-37.42,9.18-75.48,15.47-113.49,21.74-11.37,1.88-22.79,3.76-34.31,3.69-5.61,0-11.4-.58-16.37-3.18s-9-7.65-9-13.26c.06-8.07,7.72-13.65,14.29-18.31,11.42-8.1,22.67-18.79,24.32-32.69,1.1-9.25-2.27-18.39-5.87-27-5.49-13.1-13.86-27.61-27.94-29.49-12.07-1.61-23.51,7-35.68,6.51-9.88-.43-18.29-6.78-24.24-14.25-4.33-5.44-7.07-12.72-13.58-15.95C581.94,450.39,560.71,456.38,548.15,440.19Z"
     transform="translate(-39.48 -24.1)"
     fill="#945b79"
     id="path11371" />
  <path
     d="M768.23,389.85a37.55,37.55,0,0,0,10.66-50.38c.46.58.9,1.18,1.33,1.79a37.56,37.56,0,1,1-61.71,42.82c-.42-.62-.83-1.25-1.21-1.88A37.55,37.55,0,0,0,768.23,389.85Z"
     transform="translate(-39.48 -24.1)"
     fill="#945b79"
     id="path11373" />
  <g
     opacity="0.1"
     id="g11379">
    <path
       d="M649.24,359.47c2.94-3.68,5.37-7.8,8.85-11a22.51,22.51,0,0,1,1.79-1.47,27.66,27.66,0,0,0-7.82,4.91c-3.48,3.18-5.91,7.3-8.85,11a46.21,46.21,0,0,1-10.49,9.54A47.46,47.46,0,0,0,649.24,359.47Z"
       transform="translate(-39.48 -24.1)"
       id="path11375" />
    <path
       d="M732.47,598.71c-11.36,1.87-22.79,3.75-34.31,3.68-5.61,0-11.39-.57-16.37-3.17s-9-7.65-8.95-13.27c.06-8.06,7.71-13.64,14.29-18.31,11.42-8.1,22.66-18.79,24.31-32.69,1.1-9.24-2.27-18.39-5.87-27-5.49-13.1-13.85-27.62-27.94-29.49-12.07-1.61-23.5,7-35.67,6.5-9.88-.42-18.29-6.77-24.24-14.24-4.34-5.44-7.08-12.72-13.59-15.95-16.16-8-37.39-2-50-18.22-7.66-9.88-6.82-23.85-4-36,1.78-7.67,4.31-15.38,9.26-21.5a28,28,0,0,1,4.72-4.57,26.84,26.84,0,0,0-10.75,8c-5,6.11-7.49,13.83-9.27,21.49-2.83,12.18-3.66,26.15,4,36,12.56,16.19,33.79,10.2,50,18.22,6.51,3.24,9.25,10.52,13.58,16,6,7.46,14.36,13.82,24.24,14.24,12.17.52,23.61-8.12,35.68-6.51,14.08,1.88,22.45,16.39,27.94,29.5,3.6,8.58,7,17.72,5.87,27-1.65,13.9-12.9,24.59-24.32,32.69-6.57,4.66-14.23,10.25-14.29,18.31,0,5.61,4,10.67,9,13.27s10.76,3.14,16.37,3.17c11.52.07,23-1.81,34.31-3.69,38-6.27,76.07-12.55,113.49-21.74a56.19,56.19,0,0,1-6.62-.46C800,587.56,766.21,593.14,732.47,598.71Z"
       transform="translate(-39.48 -24.1)"
       id="path11377" />
  </g>
  <ellipse
     cx="410.72"
     cy="755.48"
     rx="16.4"
     ry="8.96"
     fill="#ffc1c7"
     id="ellipse11381" />
  <path
     d="M361.57,513.7c21.35.53,45.42,0,60.17-15.44,11.2-11.72,13.83-28.89,17.6-44.66,6.81-28.47,19.19-55.87,38-78.32s44.2-39.75,72.62-46.73c22.84-5.62,46.86-4.56,69.82-9.61s46.54-18.66,52.89-41.3"
     transform="translate(-39.48 -24.1)"
     fill="none"
     stroke="#000"
     stroke-miterlimit="10"
     stroke-width="0.75"
     stroke-dasharray="12"
     opacity="0.3"
     id="path11389" />
  <path
     d="M719.48,228.05l-57.61,21a1.13,1.13,0,0,0-.22,2l8.6,4.77a2.18,2.18,0,0,1,1,1.3l4.93,15.6c0,.66,1.2,1,1.31.36l.69-12.2a4.41,4.41,0,0,1,1.33-2.29l31.66-23a.71.71,0,0,1,.63-.08.64.64,0,0,1,.2,1.06l-28.15,25.67a5.4,5.4,0,0,0-1.29,2.26l-3,10.19c0,.92.64,1.37,1.34.64l6-5.27a1.09,1.09,0,0,1,1.55,0l11.82,11.6a1.08,1.08,0,0,0,1.78-.41l18.71-51.72a1.09,1.09,0,0,0-1.38-1.43Z"
     transform="translate(-39.48 -24.1)"
     fill="#007bff"
     opacity="0.5"
     id="path11391" />
</svg>
